<?xml version="1.0" standalone="no"?>
<!DOCTYPE svg PUBLIC "-//W3C//DTD SVG 20010904//EN"
 "http://www.w3.org/TR/2001/REC-SVG-20010904/DTD/svg10.dtd">
<svg version="1.0" xmlns="http://www.w3.org/2000/svg"
 width="960.000000pt" height="960.000000pt" viewBox="0 0 960.000000 960.000000"
 preserveAspectRatio="xMidYMid meet">

<g transform="translate(0.000000,960.000000) scale(0.100000,-0.100000)"
fill="#000000" stroke="none">
<path d="M0 4800 l0 -4800 4800 0 4800 0 0 4800 0 4800 -4800 0 -4800 0 0
-4800z m7285 2278 c330 -60 528 -127 753 -256 353 -201 645 -506 828 -865 76
-148 117 -263 163 -452 53 -215 64 -329 59 -566 -5 -189 -19 -282 -74 -499
-22 -85 -95 -272 -145 -370 -270 -532 -749 -922 -1313 -1070 -273 -71 -308
-74 -856 -75 l-495 0 0 85 0 85 520 6 c483 5 528 7 634 27 713 140 1288 661
1485 1348 48 167 66 285 73 464 17 464 -127 901 -416 1263 -69 87 -172 197
-183 197 -5 0 -8 -160 -8 -355 l0 -355 -685 0 -685 0 0 -225 c0 -225 0 -225
23 -230 12 -3 318 -5 680 -3 361 2 657 1 657 -2 -1 -3 -306 -208 -678 -455
l-677 -451 -3 -457 -2 -457 -767 2 -766 3 -148 205 c-301 418 -442 610 -448
610 -3 0 -80 -114 -171 -253 -90 -138 -211 -323 -268 -409 l-104 -158 -334 0
-334 0 0 -452 0 -453 -206 207 -206 206 -397 5 c-433 5 -487 10 -744 77 -686
176 -1251 726 -1452 1410 -9 30 -30 118 -47 195 -27 122 -31 165 -36 334 -5
237 6 351 59 566 46 189 87 304 163 452 150 293 383 562 651 753 139 99 377
222 518 268 123 41 324 86 447 101 52 6 106 13 120 15 14 2 1083 3 2375 2
2117 -2 2359 -4 2440 -18z m-3237 -3935 l-3 -58 -65 -3 c-36 -1 -75 -4 -87 -7
-24 -6 -53 -51 -53 -84 0 -27 47 -81 71 -81 17 0 19 8 19 60 l0 61 58 -3 57
-3 5 -115 5 -115 64 95 c35 52 64 99 64 105 0 6 -27 52 -61 103 -34 50 -62 94
-62 97 0 3 28 5 63 5 l63 0 29 -46 c16 -25 32 -47 36 -49 4 -3 19 11 34 31 21
28 24 38 15 49 -11 13 8 15 143 15 l155 0 43 -102 43 -102 19 44 c10 25 30 71
44 103 l26 57 73 0 74 0 0 -200 c0 -110 3 -200 8 -200 6 1 121 169 130 191 2
5 -26 51 -62 104 -36 53 -66 98 -66 100 0 3 29 5 65 5 l65 0 32 -50 c18 -27
35 -50 38 -50 3 0 20 23 39 50 l33 50 219 0 219 0 0 -60 0 -60 -90 0 c-89 0
-90 0 -90 -25 0 -25 1 -25 85 -25 47 0 85 -3 85 -7 0 -5 -32 -27 -70 -51 -96
-59 -100 -64 -100 -128 l0 -54 -55 0 -55 0 0 188 c0 128 -4 192 -11 199 -9 9
-28 -11 -75 -82 -35 -52 -64 -97 -64 -100 0 -2 25 -42 56 -87 86 -127 85 -118
11 -118 l-64 0 -34 50 c-19 27 -37 50 -40 50 -4 0 -21 -22 -39 -50 l-32 -50
-129 0 -128 0 -3 92 -3 92 -49 -109 c-26 -61 -52 -114 -57 -119 -5 -5 -17 10
-28 35 -10 24 -35 78 -55 119 l-36 75 0 -92 0 -93 -60 0 -60 0 -2 193 -3 192
-84 -125 c-47 -69 -105 -155 -129 -192 l-45 -68 -71 0 -71 0 3 -55 c2 -30 0
-55 -5 -55 -5 0 -33 25 -63 55 -30 30 -59 55 -65 55 -34 0 -92 26 -125 56 -40
37 -70 104 -70 158 1 41 31 105 66 138 51 48 82 58 177 58 l88 0 -3 -57z
m1742 -148 l0 -205 -60 0 -60 0 0 195 c0 123 -4 195 -10 195 -5 0 -10 5 -10
10 0 6 30 10 70 10 l70 0 0 -205z m320 145 l0 -60 -40 0 -40 0 0 -200 c0 -110
-3 -200 -7 -200 -4 0 -31 23 -60 52 l-53 52 0 148 0 148 -33 0 c-18 0 -38 -5
-45 -12 -9 -9 -12 4 -12 60 l0 72 145 0 145 0 0 -60z"/>
<path d="M2390 6913 c-81 -7 -284 -51 -381 -82 -188 -62 -315 -124 -484 -237
-201 -135 -356 -286 -498 -486 -380 -538 -453 -1249 -192 -1853 50 -115 135
-270 187 -340 268 -361 575 -588 973 -721 226 -75 311 -86 685 -91 l325 -4
-160 160 -160 161 -69 0 c-86 0 -258 25 -356 51 -531 143 -983 605 -1119 1144
-36 145 -44 235 -38 448 6 221 19 306 77 477 148 444 565 856 1005 993 236 74
288 77 1240 77 l840 0 27 -43 c15 -23 139 -210 276 -415 l250 -373 27 38 c40
56 421 614 485 711 l55 82 1333 -7 c840 -4 1332 -3 1332 3 0 9 -55 44 -162
103 -116 64 -332 139 -513 179 l-120 26 -2410 2 c-1325 0 -2430 -1 -2455 -3z"/>
<path d="M3600 5870 l0 -170 -477 0 c-505 -1 -568 -5 -683 -49 -171 -65 -335
-237 -396 -416 -32 -96 -43 -246 -25 -351 47 -266 276 -494 545 -543 33 -6 75
-11 93 -11 l33 0 0 455 0 455 455 0 455 0 0 -630 c0 -346 3 -630 8 -630 4 0
44 55 89 123 45 67 112 167 150 222 38 55 131 192 208 305 77 113 166 244 199
293 l60 87 -161 238 c-88 130 -194 285 -234 344 -41 59 -126 184 -189 278 -63
93 -118 170 -122 170 -5 0 -8 -76 -8 -170z"/>
<path d="M5690 5514 c-179 -267 -328 -491 -332 -498 -4 -7 29 -66 80 -142 49
-71 199 -294 335 -496 136 -203 250 -368 252 -368 3 0 5 448 5 995 0 547 -3
995 -7 995 -5 0 -154 -219 -333 -486z"/>
</g>
</svg>
